<mxfile host="app.diagrams.net" modified="2020-09-16T14:49:28.267Z" agent="5.0 (Windows NT 10.0; Win64; x64) AppleWebKit/537.36 (KHTML, like Gecko) Chrome/85.0.4183.102 Safari/537.36" etag="JGZwjlxaA76USD6EDkHj" version="13.7.1" type="github">
  <diagram id="6PwcJYlut7ZzaNz_6uFK" name="Page-1">
    <mxGraphModel dx="1038" dy="548" grid="1" gridSize="10" guides="1" tooltips="1" connect="1" arrows="1" fold="1" page="1" pageScale="1" pageWidth="850" pageHeight="1100" math="0" shadow="0">
      <root>
        <mxCell id="0" />
        <mxCell id="1" parent="0" />
        <mxCell id="4ArlUns6S3LDYbh-u4H2-1" value="Formul&amp;nbsp;" style="rounded=0;whiteSpace=wrap;html=1;" vertex="1" parent="1">
          <mxGeometry x="340" y="30" width="120" height="50" as="geometry" />
        </mxCell>
        <mxCell id="4ArlUns6S3LDYbh-u4H2-4" value="" style="endArrow=classic;html=1;entryX=0.5;entryY=0;entryDx=0;entryDy=0;exitX=0.5;exitY=1;exitDx=0;exitDy=0;" edge="1" parent="1" source="4ArlUns6S3LDYbh-u4H2-1" target="4ArlUns6S3LDYbh-u4H2-6">
          <mxGeometry width="50" height="50" relative="1" as="geometry">
            <mxPoint x="400" y="90" as="sourcePoint" />
            <mxPoint x="400" y="90" as="targetPoint" />
          </mxGeometry>
        </mxCell>
        <mxCell id="4ArlUns6S3LDYbh-u4H2-6" value="Başla" style="shape=process;whiteSpace=wrap;html=1;backgroundOutline=1;" vertex="1" parent="1">
          <mxGeometry x="340" y="110" width="120" height="20" as="geometry" />
        </mxCell>
        <mxCell id="4ArlUns6S3LDYbh-u4H2-7" value="" style="endArrow=classic;html=1;entryX=0.5;entryY=0;entryDx=0;entryDy=0;exitX=0.5;exitY=1;exitDx=0;exitDy=0;" edge="1" parent="1" source="4ArlUns6S3LDYbh-u4H2-6" target="4ArlUns6S3LDYbh-u4H2-8">
          <mxGeometry width="50" height="50" relative="1" as="geometry">
            <mxPoint x="399.5" y="140" as="sourcePoint" />
            <mxPoint x="400" y="160" as="targetPoint" />
          </mxGeometry>
        </mxCell>
        <mxCell id="4ArlUns6S3LDYbh-u4H2-12" value="" style="edgeStyle=orthogonalEdgeStyle;rounded=0;orthogonalLoop=1;jettySize=auto;html=1;entryX=0.5;entryY=0;entryDx=0;entryDy=0;" edge="1" parent="1" source="4ArlUns6S3LDYbh-u4H2-8" target="4ArlUns6S3LDYbh-u4H2-11">
          <mxGeometry relative="1" as="geometry">
            <mxPoint x="400" y="260" as="targetPoint" />
          </mxGeometry>
        </mxCell>
        <mxCell id="4ArlUns6S3LDYbh-u4H2-32" style="edgeStyle=orthogonalEdgeStyle;rounded=0;orthogonalLoop=1;jettySize=auto;html=1;entryX=0;entryY=0.5;entryDx=0;entryDy=0;" edge="1" parent="1" source="4ArlUns6S3LDYbh-u4H2-8" target="4ArlUns6S3LDYbh-u4H2-23">
          <mxGeometry relative="1" as="geometry">
            <mxPoint x="240" y="480" as="targetPoint" />
            <Array as="points">
              <mxPoint x="240" y="200" />
              <mxPoint x="240" y="480" />
            </Array>
          </mxGeometry>
        </mxCell>
        <mxCell id="4ArlUns6S3LDYbh-u4H2-8" value="Su" style="rhombus;whiteSpace=wrap;html=1;" vertex="1" parent="1">
          <mxGeometry x="360" y="160" width="80" height="80" as="geometry" />
        </mxCell>
        <mxCell id="4ArlUns6S3LDYbh-u4H2-14" value="" style="edgeStyle=orthogonalEdgeStyle;rounded=0;orthogonalLoop=1;jettySize=auto;html=1;" edge="1" parent="1" source="4ArlUns6S3LDYbh-u4H2-11">
          <mxGeometry relative="1" as="geometry">
            <mxPoint x="400" y="320" as="targetPoint" />
          </mxGeometry>
        </mxCell>
        <mxCell id="4ArlUns6S3LDYbh-u4H2-11" value="Valf 1 Aç" style="shape=process;whiteSpace=wrap;html=1;backgroundOutline=1;" vertex="1" parent="1">
          <mxGeometry x="340" y="270" width="120" height="20" as="geometry" />
        </mxCell>
        <mxCell id="4ArlUns6S3LDYbh-u4H2-17" value="" style="edgeStyle=orthogonalEdgeStyle;rounded=0;orthogonalLoop=1;jettySize=auto;html=1;" edge="1" parent="1" source="4ArlUns6S3LDYbh-u4H2-13" target="4ArlUns6S3LDYbh-u4H2-16">
          <mxGeometry relative="1" as="geometry" />
        </mxCell>
        <mxCell id="4ArlUns6S3LDYbh-u4H2-13" value="Su Hesapla" style="shape=parallelogram;perimeter=parallelogramPerimeter;whiteSpace=wrap;html=1;fixedSize=1;" vertex="1" parent="1">
          <mxGeometry x="340" y="320" width="120" height="40" as="geometry" />
        </mxCell>
        <mxCell id="4ArlUns6S3LDYbh-u4H2-16" value="Valf 1 Kapat" style="shape=process;whiteSpace=wrap;html=1;backgroundOutline=1;" vertex="1" parent="1">
          <mxGeometry x="340" y="390" width="120" height="20" as="geometry" />
        </mxCell>
        <mxCell id="4ArlUns6S3LDYbh-u4H2-18" value="" style="edgeStyle=orthogonalEdgeStyle;rounded=0;orthogonalLoop=1;jettySize=auto;html=1;" edge="1" parent="1">
          <mxGeometry relative="1" as="geometry">
            <mxPoint x="399.5" y="410" as="sourcePoint" />
            <mxPoint x="399.5" y="440" as="targetPoint" />
          </mxGeometry>
        </mxCell>
        <mxCell id="4ArlUns6S3LDYbh-u4H2-19" value="Evet" style="text;html=1;strokeColor=none;fillColor=none;align=center;verticalAlign=middle;whiteSpace=wrap;rounded=0;" vertex="1" parent="1">
          <mxGeometry x="360" y="230" width="40" height="20" as="geometry" />
        </mxCell>
        <mxCell id="4ArlUns6S3LDYbh-u4H2-20" value="Hayır" style="text;html=1;strokeColor=none;fillColor=none;align=center;verticalAlign=middle;whiteSpace=wrap;rounded=0;" vertex="1" parent="1">
          <mxGeometry x="320" y="180" width="40" height="20" as="geometry" />
        </mxCell>
        <mxCell id="4ArlUns6S3LDYbh-u4H2-22" value="" style="edgeStyle=orthogonalEdgeStyle;rounded=0;orthogonalLoop=1;jettySize=auto;html=1;entryX=0.5;entryY=0;entryDx=0;entryDy=0;" edge="1" parent="1" source="4ArlUns6S3LDYbh-u4H2-23" target="4ArlUns6S3LDYbh-u4H2-25">
          <mxGeometry relative="1" as="geometry">
            <mxPoint x="400" y="540" as="targetPoint" />
          </mxGeometry>
        </mxCell>
        <mxCell id="4ArlUns6S3LDYbh-u4H2-44" style="edgeStyle=orthogonalEdgeStyle;rounded=0;orthogonalLoop=1;jettySize=auto;html=1;entryX=1;entryY=0.5;entryDx=0;entryDy=0;" edge="1" parent="1" source="4ArlUns6S3LDYbh-u4H2-23" target="4ArlUns6S3LDYbh-u4H2-35">
          <mxGeometry relative="1" as="geometry">
            <Array as="points">
              <mxPoint x="560" y="480" />
              <mxPoint x="560" y="760" />
            </Array>
          </mxGeometry>
        </mxCell>
        <mxCell id="4ArlUns6S3LDYbh-u4H2-23" value="Ham Su" style="rhombus;whiteSpace=wrap;html=1;" vertex="1" parent="1">
          <mxGeometry x="360" y="440" width="80" height="80" as="geometry" />
        </mxCell>
        <mxCell id="4ArlUns6S3LDYbh-u4H2-24" value="" style="edgeStyle=orthogonalEdgeStyle;rounded=0;orthogonalLoop=1;jettySize=auto;html=1;" edge="1" parent="1" source="4ArlUns6S3LDYbh-u4H2-25">
          <mxGeometry relative="1" as="geometry">
            <mxPoint x="400" y="600" as="targetPoint" />
          </mxGeometry>
        </mxCell>
        <mxCell id="4ArlUns6S3LDYbh-u4H2-25" value="Valf 2 Aç" style="shape=process;whiteSpace=wrap;html=1;backgroundOutline=1;" vertex="1" parent="1">
          <mxGeometry x="340" y="550" width="120" height="20" as="geometry" />
        </mxCell>
        <mxCell id="4ArlUns6S3LDYbh-u4H2-26" value="" style="edgeStyle=orthogonalEdgeStyle;rounded=0;orthogonalLoop=1;jettySize=auto;html=1;" edge="1" parent="1" source="4ArlUns6S3LDYbh-u4H2-27" target="4ArlUns6S3LDYbh-u4H2-28">
          <mxGeometry relative="1" as="geometry" />
        </mxCell>
        <mxCell id="4ArlUns6S3LDYbh-u4H2-27" value="HamSU Hesapla" style="shape=parallelogram;perimeter=parallelogramPerimeter;whiteSpace=wrap;html=1;fixedSize=1;" vertex="1" parent="1">
          <mxGeometry x="340" y="600" width="120" height="40" as="geometry" />
        </mxCell>
        <mxCell id="4ArlUns6S3LDYbh-u4H2-28" value="Valf 2 Kapat" style="shape=process;whiteSpace=wrap;html=1;backgroundOutline=1;" vertex="1" parent="1">
          <mxGeometry x="340" y="670" width="120" height="20" as="geometry" />
        </mxCell>
        <mxCell id="4ArlUns6S3LDYbh-u4H2-29" value="" style="edgeStyle=orthogonalEdgeStyle;rounded=0;orthogonalLoop=1;jettySize=auto;html=1;" edge="1" parent="1">
          <mxGeometry relative="1" as="geometry">
            <mxPoint x="399.5" y="690" as="sourcePoint" />
            <mxPoint x="399.5" y="720" as="targetPoint" />
          </mxGeometry>
        </mxCell>
        <mxCell id="4ArlUns6S3LDYbh-u4H2-30" value="Evet" style="text;html=1;strokeColor=none;fillColor=none;align=center;verticalAlign=middle;whiteSpace=wrap;rounded=0;" vertex="1" parent="1">
          <mxGeometry x="360" y="510" width="40" height="20" as="geometry" />
        </mxCell>
        <mxCell id="4ArlUns6S3LDYbh-u4H2-31" value="Hayır" style="text;html=1;strokeColor=none;fillColor=none;align=center;verticalAlign=middle;whiteSpace=wrap;rounded=0;" vertex="1" parent="1">
          <mxGeometry x="440" y="460" width="40" height="20" as="geometry" />
        </mxCell>
        <mxCell id="4ArlUns6S3LDYbh-u4H2-34" value="" style="edgeStyle=orthogonalEdgeStyle;rounded=0;orthogonalLoop=1;jettySize=auto;html=1;entryX=0.5;entryY=0;entryDx=0;entryDy=0;" edge="1" parent="1" source="4ArlUns6S3LDYbh-u4H2-35" target="4ArlUns6S3LDYbh-u4H2-37">
          <mxGeometry relative="1" as="geometry">
            <mxPoint x="400" y="820" as="targetPoint" />
          </mxGeometry>
        </mxCell>
        <mxCell id="4ArlUns6S3LDYbh-u4H2-35" value="Amonyak" style="rhombus;whiteSpace=wrap;html=1;" vertex="1" parent="1">
          <mxGeometry x="360" y="720" width="80" height="80" as="geometry" />
        </mxCell>
        <mxCell id="4ArlUns6S3LDYbh-u4H2-36" value="" style="edgeStyle=orthogonalEdgeStyle;rounded=0;orthogonalLoop=1;jettySize=auto;html=1;" edge="1" parent="1" source="4ArlUns6S3LDYbh-u4H2-37">
          <mxGeometry relative="1" as="geometry">
            <mxPoint x="400" y="880" as="targetPoint" />
          </mxGeometry>
        </mxCell>
        <mxCell id="4ArlUns6S3LDYbh-u4H2-37" value="Valf 3 Aç" style="shape=process;whiteSpace=wrap;html=1;backgroundOutline=1;" vertex="1" parent="1">
          <mxGeometry x="340" y="830" width="120" height="20" as="geometry" />
        </mxCell>
        <mxCell id="4ArlUns6S3LDYbh-u4H2-38" value="" style="edgeStyle=orthogonalEdgeStyle;rounded=0;orthogonalLoop=1;jettySize=auto;html=1;" edge="1" parent="1" source="4ArlUns6S3LDYbh-u4H2-39" target="4ArlUns6S3LDYbh-u4H2-40">
          <mxGeometry relative="1" as="geometry" />
        </mxCell>
        <mxCell id="4ArlUns6S3LDYbh-u4H2-39" value="Amonyak Hesapl" style="shape=parallelogram;perimeter=parallelogramPerimeter;whiteSpace=wrap;html=1;fixedSize=1;" vertex="1" parent="1">
          <mxGeometry x="340" y="880" width="120" height="40" as="geometry" />
        </mxCell>
        <mxCell id="4ArlUns6S3LDYbh-u4H2-40" value="Valf 3 Kapat" style="shape=process;whiteSpace=wrap;html=1;backgroundOutline=1;" vertex="1" parent="1">
          <mxGeometry x="340" y="950" width="120" height="20" as="geometry" />
        </mxCell>
        <mxCell id="4ArlUns6S3LDYbh-u4H2-41" value="" style="edgeStyle=orthogonalEdgeStyle;rounded=0;orthogonalLoop=1;jettySize=auto;html=1;" edge="1" parent="1">
          <mxGeometry relative="1" as="geometry">
            <mxPoint x="399.5" y="970" as="sourcePoint" />
            <mxPoint x="399.5" y="1000" as="targetPoint" />
          </mxGeometry>
        </mxCell>
        <mxCell id="4ArlUns6S3LDYbh-u4H2-42" value="Evet" style="text;html=1;strokeColor=none;fillColor=none;align=center;verticalAlign=middle;whiteSpace=wrap;rounded=0;" vertex="1" parent="1">
          <mxGeometry x="350" y="790" width="40" height="20" as="geometry" />
        </mxCell>
        <mxCell id="4ArlUns6S3LDYbh-u4H2-55" style="edgeStyle=orthogonalEdgeStyle;rounded=0;orthogonalLoop=1;jettySize=auto;html=1;exitX=1;exitY=1;exitDx=0;exitDy=0;entryX=0;entryY=0.5;entryDx=0;entryDy=0;" edge="1" parent="1" source="4ArlUns6S3LDYbh-u4H2-43" target="4ArlUns6S3LDYbh-u4H2-46">
          <mxGeometry relative="1" as="geometry">
            <Array as="points">
              <mxPoint x="240" y="760" />
              <mxPoint x="240" y="1040" />
            </Array>
          </mxGeometry>
        </mxCell>
        <mxCell id="4ArlUns6S3LDYbh-u4H2-43" value="Hayır" style="text;html=1;strokeColor=none;fillColor=none;align=center;verticalAlign=middle;whiteSpace=wrap;rounded=0;" vertex="1" parent="1">
          <mxGeometry x="320" y="740" width="40" height="20" as="geometry" />
        </mxCell>
        <mxCell id="4ArlUns6S3LDYbh-u4H2-45" value="" style="edgeStyle=orthogonalEdgeStyle;rounded=0;orthogonalLoop=1;jettySize=auto;html=1;entryX=0.5;entryY=0;entryDx=0;entryDy=0;" edge="1" parent="1" source="4ArlUns6S3LDYbh-u4H2-46">
          <mxGeometry relative="1" as="geometry">
            <mxPoint x="400" y="1110" as="targetPoint" />
          </mxGeometry>
        </mxCell>
        <mxCell id="4ArlUns6S3LDYbh-u4H2-46" value="El İlave" style="rhombus;whiteSpace=wrap;html=1;" vertex="1" parent="1">
          <mxGeometry x="360" y="1000" width="80" height="80" as="geometry" />
        </mxCell>
        <mxCell id="4ArlUns6S3LDYbh-u4H2-53" value="Evet" style="text;html=1;strokeColor=none;fillColor=none;align=center;verticalAlign=middle;whiteSpace=wrap;rounded=0;" vertex="1" parent="1">
          <mxGeometry x="350" y="1070" width="40" height="20" as="geometry" />
        </mxCell>
        <mxCell id="4ArlUns6S3LDYbh-u4H2-54" value="Hayır" style="text;html=1;strokeColor=none;fillColor=none;align=center;verticalAlign=middle;whiteSpace=wrap;rounded=0;" vertex="1" parent="1">
          <mxGeometry x="440" y="1020" width="40" height="20" as="geometry" />
        </mxCell>
        <mxCell id="4ArlUns6S3LDYbh-u4H2-57" value="ilave ok" style="shape=process;whiteSpace=wrap;html=1;backgroundOutline=1;" vertex="1" parent="1">
          <mxGeometry x="340" y="1110" width="120" height="20" as="geometry" />
        </mxCell>
      </root>
    </mxGraphModel>
  </diagram>
</mxfile>
